<?xml version="1.0" standalone="no"?>
<!DOCTYPE svg PUBLIC "-//W3C//DTD SVG 20010904//EN"
 "http://www.w3.org/TR/2001/REC-SVG-20010904/DTD/svg10.dtd">
<svg version="1.0" xmlns="http://www.w3.org/2000/svg"
 width="845.000000pt" height="295.000000pt" viewBox="0 0 845.000000 295.000000"
 preserveAspectRatio="xMidYMid meet">

<g transform="translate(0.000000,295.000000) scale(0.100000,-0.100000)"
fill="#000000" stroke="none">
<path d="M2369 2640 c-214 -25 -418 -127 -565 -282 -173 -182 -258 -397 -257
-648 1 -70 7 -147 15 -175 l13 -50 56 -7 c72 -9 170 -41 237 -79 l53 -30 -26
51 c-14 27 -32 75 -40 107 -79 302 195 587 589 612 l101 7 -75 13 c-171 31
-355 -8 -501 -105 -72 -48 -78 -51 -65 -26 8 15 35 55 59 87 78 104 179 175
312 221 70 25 95 28 205 28 118 1 130 -1 215 -33 50 -18 98 -33 107 -34 9 -1
16 -4 15 -8 -4 -14 91 -76 116 -76 15 0 24 3 21 8 -3 5 2 9 10 9 9 0 16 7 16
15 0 8 -5 15 -10 15 -7 0 -7 6 0 19 14 28 13 108 -2 114 -10 3 -10 9 1 29 7
15 10 31 7 37 -11 17 5 36 16 20 8 -12 9 -12 6 0 -2 8 -17 16 -32 18 -18 3
-25 0 -21 -7 3 -6 12 -7 18 -4 7 4 8 3 4 -1 -10 -12 -38 -15 -31 -4 3 5 -3 9
-13 10 -14 0 -13 2 5 10 13 5 20 13 17 19 -9 14 -17 12 -10 -2 4 -7 0 -5 -8 4
-19 24 -104 61 -119 52 -6 -4 -8 -3 -5 3 9 15 -122 51 -228 63 -99 11 -110 11
-206 0z"/>
<path d="M4240 2430 l0 -140 109 0 110 0 3 140 3 140 -112 0 -113 0 0 -140z"/>
<path d="M3650 2421 c0 -49 4 -91 10 -93 5 -1 46 -2 90 0 l80 4 0 89 0 89 -90
0 -90 0 0 -89z"/>
<path d="M3046 2408 c3 -5 10 -6 15 -3 13 9 11 12 -6 12 -8 0 -12 -4 -9 -9z"/>
<path d="M4600 2236 l0 -183 178 1 177 1 3 183 2 182 -180 0 -180 0 0 -184z"/>
<path d="M3430 2230 l0 -90 75 0 75 0 0 90 0 90 -75 0 -75 0 0 -90z"/>
<path d="M3840 2180 l0 -140 110 0 110 0 0 140 0 140 -110 0 -110 0 0 -140z"/>
<path d="M2930 2206 c0 -2 7 -9 15 -16 9 -7 15 -8 15 -2 0 5 -7 12 -15 16 -8
3 -15 4 -15 2z"/>
<path d="M3003 2143 c-18 -6 -16 -22 2 -19 20 3 40 23 23 23 -7 0 -19 -2 -25
-4z"/>
<path d="M4546 2005 c-202 -51 -383 -236 -426 -436 -18 -81 -8 -240 18 -313
62 -171 198 -307 368 -367 82 -30 228 -37 314 -15 101 25 185 72 261 143 38
36 69 69 69 74 0 5 -63 9 -140 9 -127 0 -145 -2 -183 -22 -35 -19 -58 -23
-137 -23 -83 0 -102 3 -150 27 -74 36 -154 118 -193 198 -29 59 -32 73 -32
160 0 86 3 101 32 162 39 83 108 154 188 194 52 25 71 29 145 29 88 0 145 -16
201 -56 24 -17 45 -19 164 -19 l136 0 -22 31 c-61 85 -175 169 -283 207 -89
31 -241 39 -330 17z"/>
<path d="M2360 1905 l0 -95 205 0 c113 0 205 -2 205 -4 0 -2 -97 -173 -215
-381 l-215 -378 0 -84 0 -83 350 0 350 0 0 95 0 95 -226 0 c-210 0 -226 1
-219 17 3 10 44 83 89 163 46 80 138 241 205 358 l121 212 0 90 0 90 -325 0
-325 0 0 -95z"/>
<path d="M3136 1813 c40 -104 137 -354 217 -558 l144 -370 85 -3 85 -3 211
543 c116 299 214 551 218 561 6 16 -1 17 -102 15 l-109 -3 -150 -422 c-82
-232 -153 -419 -156 -415 -6 6 -65 172 -244 680 l-57 162 -108 0 -107 0 73
-187z"/>
<path d="M4550 1680 l0 -70 -30 0 c-29 0 -30 -2 -30 -45 0 -43 1 -45 30 -45
l30 0 0 -175 0 -175 53 0 52 0 0 173 0 172 33 3 c31 3 32 5 32 47 0 42 -1 44
-32 47 l-33 3 -3 68 -3 67 -49 0 -50 0 0 -70z"/>
<path d="M5510 1460 l0 -290 45 0 c42 0 45 2 45 27 0 24 1 25 18 10 78 -71
232 -58 295 25 95 125 64 293 -66 360 -57 29 -140 29 -196 0 -23 -12 -44 -22
-46 -22 -3 0 -5 41 -5 90 l0 90 -45 0 -45 0 0 -290z m280 45 c46 -24 70 -62
70 -112 0 -84 -48 -133 -130 -133 -33 0 -48 7 -81 38 -47 44 -59 90 -36 145
28 66 111 96 177 62z"/>
<path d="M1302 1720 c-226 -59 -416 -250 -478 -480 -23 -86 -23 -243 0 -330
38 -144 119 -267 239 -363 l59 -47 26 20 c15 11 66 49 114 84 l87 64 -37 23
c-81 53 -108 145 -100 345 l4 119 -24 -75 c-18 -57 -24 -100 -25 -177 -1 -57
-5 -103 -8 -103 -4 0 -18 17 -32 39 -112 170 -92 382 50 528 62 64 157 112
239 120 l57 6 -7 66 c-3 36 -6 92 -6 124 l0 57 -42 -1 c-24 0 -76 -9 -116 -19z"/>
<path d="M7508 1663 l-3 -68 -36 -3 c-26 -2 -38 -9 -42 -22 -7 -26 0 -30 45
-30 l38 0 0 -185 0 -185 25 0 25 0 0 185 0 185 40 0 c36 0 40 3 40 25 0 23 -4
25 -40 25 l-40 0 0 70 c0 68 -1 70 -25 70 -23 0 -24 -3 -27 -67z"/>
<path d="M5380 1599 c-22 -14 -36 -17 -38 -10 -2 6 -26 11 -53 11 l-49 0 0
-215 0 -215 55 0 55 0 0 144 c0 160 9 187 70 199 29 6 30 9 30 57 0 58 -13 63
-70 29z"/>
<path d="M6180 1605 c-202 -64 -221 -322 -30 -421 52 -27 162 -24 218 4 70 37
121 143 108 225 -23 142 -164 234 -296 192z m130 -111 c87 -52 77 -191 -17
-230 -51 -22 -95 -11 -132 31 -56 64 -54 133 5 184 40 36 98 42 144 15z"/>
<path d="M4780 1453 c0 -177 11 -217 69 -266 56 -47 123 -48 194 -1 36 23 37
24 37 4 0 -17 7 -20 45 -20 l45 0 0 220 0 220 -55 0 -55 0 0 -130 c0 -142 -10
-185 -51 -214 -33 -23 -54 -20 -91 13 l-33 29 -3 151 -3 151 -50 0 -49 0 0
-157z"/>
<path d="M7117 1596 c-88 -24 -157 -119 -157 -217 0 -46 29 -113 67 -151 95
-97 255 -87 328 20 31 46 31 52 1 52 -16 0 -32 -11 -45 -29 -28 -38 -79 -61
-139 -61 -77 0 -137 51 -156 133 l-6 27 196 0 197 0 -7 47 c-18 135 -145 216
-279 179z m138 -56 c26 -13 49 -34 63 -59 41 -72 42 -71 -139 -71 l-161 0 5
30 c20 99 133 148 232 100z"/>
<path d="M6650 1589 c-13 -5 -33 -17 -42 -26 -17 -15 -18 -15 -18 5 0 17 -6
22 -25 22 l-25 0 0 -210 0 -210 25 0 25 0 0 148 c0 97 5 155 13 171 21 42 60
63 114 63 107 0 123 -29 123 -232 l0 -150 25 0 25 0 0 158 c0 173 -9 206 -63
246 -31 23 -136 32 -177 15z"/>
<path d="M6496 948 l3 -133 48 -2 c26 -2 76 -5 111 -9 l62 -6 0 -89 0 -89 95
0 95 0 0 90 0 90 -95 0 -95 0 0 140 0 140 -113 0 -113 0 2 -132z"/>
<path d="M5590 890 l0 -180 185 0 185 0 0 180 0 180 -185 0 -185 0 0 -180z"/>
<path d="M7038 983 l-57 -4 -3 -81 c-2 -48 1 -82 7 -83 6 -2 38 -6 73 -8 l62
-5 0 94 c0 70 -3 94 -12 92 -7 -1 -39 -3 -70 -5z"/>
<path d="M5382 916 c-221 -189 -476 -265 -887 -266 -217 0 -389 15 -900 79
-567 72 -615 76 -955 76 -320 -1 -421 -9 -640 -57 -242 -52 -536 -174 -730
-303 -118 -79 -120 -84 -10 -27 267 139 590 224 960 253 190 14 633 7 880 -16
96 -8 308 -29 470 -45 162 -16 369 -35 458 -41 218 -15 606 -7 732 16 258 47
441 131 589 269 46 44 119 127 109 125 -1 0 -36 -29 -76 -63z"/>
<path d="M6092 695 l-1 -135 32 0 c18 0 69 -3 115 -7 l82 -6 0 142 0 141 -113
0 -113 0 -2 -135z"/>
<path d="M5340 752 c0 -12 19 -26 26 -19 2 2 -2 10 -11 17 -9 8 -15 8 -15 2z"/>
<path d="M5323 738 c4 -10 3 -18 -2 -18 -4 0 -8 -7 -8 -15 0 -19 11 -19 27 1
11 12 10 18 -5 32 -17 16 -17 16 -12 0z"/>
<path d="M5298 732 c-7 -17 -126 -88 -207 -123 -136 -60 -358 -108 -506 -110
-33 0 -78 -3 -100 -8 -36 -6 -31 -8 45 -14 309 -25 560 28 725 152 45 34 52
44 52 75 0 36 -2 43 -9 28z"/>
<path d="M2165 609 c-269 -27 -593 -112 -796 -210 -35 -16 -55 -27 -44 -24
554 173 1099 213 1850 134 105 -11 206 -22 225 -24 26 -4 23 -1 -15 10 -80 24
-379 82 -515 100 -147 20 -570 28 -705 14z"/>
</g>
</svg>
